<svg xmlns="http://www.w3.org/2000/svg" width="134.111" height="34" viewBox="0 0 134.111 34">
    <defs>
        <style>
            .a {
                fill: #32e2bd;
            }
        </style>
    </defs>
    <path class="a" d="M1.261,13.08H21.784v4.748H14.3V37.839H8.74V17.827H1.261Zm29.048,5.947V37.839H25V19.027Zm.511-5.411h0a2.922,2.922,0,0,1-.944,2.3h0a3.262,3.262,0,0,1-2.246.842h0a3.229,3.229,0,0,1-2.221-.842h0a2.922,2.922,0,0,1-.944-2.3h0a2.953,2.953,0,0,1,.944-2.323h0a3.229,3.229,0,0,1,2.221-.842h0a3.262,3.262,0,0,1,2.246.842h0A2.953,2.953,0,0,1,30.82,13.616Zm4.492,24.224V19.691h0a26.484,26.484,0,0,1,3.5-.74h0a29.535,29.535,0,0,1,4.518-.332h0a11.127,11.127,0,0,1,3.982.613h0a6.305,6.305,0,0,1,2.527,1.761h0a6.9,6.9,0,0,1,1.3,2.731h0a13.8,13.8,0,0,1,.408,3.5h0V37.839H46.212v-9.98h0a7.333,7.333,0,0,0-.664-3.65h0A2.8,2.8,0,0,0,43,23.137h0q-.562,0-1.2.051h0q-.664.077-1.149.128h0V37.839ZM67.551,19.027h5.514Q71.456,24.464,69.7,29.212h0q-1.761,4.773-3.829,9.24h0a18.907,18.907,0,0,1-1.506,2.731h0a8.388,8.388,0,0,1-1.634,1.863h0a5.846,5.846,0,0,1-2.017,1.047h0a8.694,8.694,0,0,1-2.629.357h0a10.722,10.722,0,0,1-2.3-.23h0a8.456,8.456,0,0,1-1.736-.536h0l.919-4.237h0a8.667,8.667,0,0,0,1.48.383h0a8.564,8.564,0,0,0,1.353.1h0a2.971,2.971,0,0,0,2.2-.766h0a6.173,6.173,0,0,0,1.3-2.119h0q-1.812-3.574-3.65-8.015h0a103.4,103.4,0,0,1-3.42-10.006h5.641q.357,1.4.842,3.038h0q.485,1.608,1.021,3.293h0q.536,1.659,1.072,3.216h0q.562,1.583,1.072,2.859h0q.459-1.276.97-2.859h0q.485-1.557.97-3.216h0q.485-1.685.919-3.293h0q.459-1.634.817-3.038Zm16.158-6.254h0q5.539,0,8.5,1.965h0q2.961,1.94,2.961,6.381h0q0,4.467-2.986,6.432h0q-3.012,1.991-8.577,1.991H81.845v8.3H76.281v-24.4h0a32.5,32.5,0,0,1,3.854-.511h0Q82.177,12.773,83.709,12.773Zm.357,4.773h0q-.613,0-1.2.026h0q-.587.026-1.021.077h0V24.8h1.761A9.342,9.342,0,0,0,87.946,24h0a3.024,3.024,0,0,0,1.48-2.935h0a3.482,3.482,0,0,0-.383-1.71h0a2.886,2.886,0,0,0-1.072-1.1h0a4.677,4.677,0,0,0-1.685-.562h0A15.007,15.007,0,0,0,84.066,17.547ZM106.12,34.113h0q.766,0,1.48-.026h0q.715-.051,1.149-.1h0V29.926h0q-.306-.051-.97-.128h0a9.911,9.911,0,0,0-1.174-.077h0a12.26,12.26,0,0,0-1.4.077h0a3.958,3.958,0,0,0-1.174.357h0a2.088,2.088,0,0,0-.766.664h0a1.812,1.812,0,0,0-.306,1.072h0a1.831,1.831,0,0,0,.842,1.736h0A4.673,4.673,0,0,0,106.12,34.113Zm-.434-15.571h0a12.389,12.389,0,0,1,3.931.536h0a6.119,6.119,0,0,1,2.5,1.532h0a5.413,5.413,0,0,1,1.353,2.425h0a12.332,12.332,0,0,1,.383,3.191h0V37.3h0q-1.123.255-3.165.587h0a31.277,31.277,0,0,1-4.926.332h0a16.436,16.436,0,0,1-3.318-.306h0a7.224,7.224,0,0,1-2.553-1.072h0a4.591,4.591,0,0,1-1.634-1.914h0a6.405,6.405,0,0,1-.587-2.884h0a5.475,5.475,0,0,1,.664-2.782h0a5.212,5.212,0,0,1,1.761-1.838h0a8.467,8.467,0,0,1,2.553-.97h0a14.1,14.1,0,0,1,2.961-.306h0q1.047,0,1.838.077h0a7.628,7.628,0,0,1,1.3.255h0V25.97h0a2.933,2.933,0,0,0-.817-2.17h0a3.9,3.9,0,0,0-2.859-.842h0a17.6,17.6,0,0,0-2.68.2h0a11.948,11.948,0,0,0-2.3.562h0l-.664-4.288h0a11.838,11.838,0,0,1,1.149-.306h0q.715-.153,1.532-.281h0q.817-.128,1.736-.23h0Q104.742,18.542,105.686,18.542Zm24.2.485h5.488q-1.608,5.437-3.344,10.185h0q-1.761,4.773-3.829,9.24h0a22.875,22.875,0,0,1-1.506,2.731h0a8.387,8.387,0,0,1-1.634,1.863h0a5.815,5.815,0,0,1-2.042,1.047h0a8.6,8.6,0,0,1-2.6.357h0a11.083,11.083,0,0,1-2.323-.23h0a9.189,9.189,0,0,1-1.736-.536h0l.944-4.237h0a8.858,8.858,0,0,0,1.455.383h0a8.564,8.564,0,0,0,1.353.1h0a2.971,2.971,0,0,0,2.2-.766h0a5.955,5.955,0,0,0,1.327-2.119h0q-1.838-3.574-3.65-8.015h0a98.757,98.757,0,0,1-3.446-10.006H122.2q.357,1.4.817,3.038h0q.485,1.608,1.021,3.293h0q.536,1.659,1.1,3.216h0q.562,1.583,1.047,2.859h0q.485-1.276.97-2.859h0q.511-1.557,1-3.216h0q.485-1.685.919-3.293h0q.459-1.634.817-3.038Z" transform="translate(-1.261 -10.45)"/>
</svg>
